<mxfile host="65bd71144e" scale="1" border="5">
    <diagram id="F_URVQluiRiYZ4EXp49W" name="Page-1">
        <mxGraphModel dx="419" dy="302" grid="1" gridSize="10" guides="1" tooltips="1" connect="1" arrows="1" fold="1" page="1" pageScale="1" pageWidth="3000" pageHeight="2000" math="0" shadow="0">
            <root>
                <mxCell id="0"/>
                <mxCell id="1" parent="0"/>
                <mxCell id="171" value="geom" style="shape=umlFrame;whiteSpace=wrap;html=1;fontSize=18;width=80;height=30;strokeColor=#CFA57C;strokeWidth=2;" vertex="1" parent="1">
                    <mxGeometry x="960" y="1030" width="960" height="450" as="geometry"/>
                </mxCell>
                <mxCell id="173" value="operation" style="shape=umlFrame;whiteSpace=wrap;html=1;fontSize=18;width=110;height=30;strokeColor=#CFA57C;strokeWidth=2;" vertex="1" parent="1">
                    <mxGeometry x="1690" y="240" width="830" height="930" as="geometry"/>
                </mxCell>
                <mxCell id="30" value="GeoPoint" style="swimlane;fontStyle=1;align=center;verticalAlign=top;childLayout=stackLayout;horizontal=1;startSize=26;horizontalStack=0;resizeParent=1;resizeParentMax=0;resizeLast=0;collapsible=1;marginBottom=0;fontSize=15;" parent="1" vertex="1">
                    <mxGeometry x="1250" y="1210" width="120" height="34" as="geometry"/>
                </mxCell>
                <mxCell id="32" value="" style="line;strokeWidth=1;fillColor=none;align=left;verticalAlign=middle;spacingTop=-1;spacingLeft=3;spacingRight=3;rotatable=0;labelPosition=right;points=[];portConstraint=eastwest;fontSize=15;" parent="30" vertex="1">
                    <mxGeometry y="26" width="120" height="8" as="geometry"/>
                </mxCell>
                <mxCell id="41" value="GeoLineString" style="swimlane;fontStyle=1;align=center;verticalAlign=top;childLayout=stackLayout;horizontal=1;startSize=26;horizontalStack=0;resizeParent=1;resizeParentMax=0;resizeLast=0;collapsible=1;marginBottom=0;fontSize=15;" parent="1" vertex="1">
                    <mxGeometry x="1250" y="1300" width="120" height="34" as="geometry"/>
                </mxCell>
                <mxCell id="42" value="" style="line;strokeWidth=1;fillColor=none;align=left;verticalAlign=middle;spacingTop=-1;spacingLeft=3;spacingRight=3;rotatable=0;labelPosition=right;points=[];portConstraint=eastwest;fontSize=15;" parent="41" vertex="1">
                    <mxGeometry y="26" width="120" height="8" as="geometry"/>
                </mxCell>
                <mxCell id="43" value="GeoLinearRing" style="swimlane;fontStyle=1;align=center;verticalAlign=top;childLayout=stackLayout;horizontal=1;startSize=26;horizontalStack=0;resizeParent=1;resizeParentMax=0;resizeLast=0;collapsible=1;marginBottom=0;fontSize=15;" parent="1" vertex="1">
                    <mxGeometry x="1250" y="1390" width="120" height="34" as="geometry"/>
                </mxCell>
                <mxCell id="44" value="" style="line;strokeWidth=1;fillColor=none;align=left;verticalAlign=middle;spacingTop=-1;spacingLeft=3;spacingRight=3;rotatable=0;labelPosition=right;points=[];portConstraint=eastwest;fontSize=15;" parent="43" vertex="1">
                    <mxGeometry y="26" width="120" height="8" as="geometry"/>
                </mxCell>
                <mxCell id="45" value="GeoPolygon" style="swimlane;fontStyle=1;align=center;verticalAlign=top;childLayout=stackLayout;horizontal=1;startSize=26;horizontalStack=0;resizeParent=1;resizeParentMax=0;resizeLast=0;collapsible=1;marginBottom=0;fontSize=15;" parent="1" vertex="1">
                    <mxGeometry x="1470" y="1390" width="120" height="34" as="geometry"/>
                </mxCell>
                <mxCell id="46" value="" style="line;strokeWidth=1;fillColor=none;align=left;verticalAlign=middle;spacingTop=-1;spacingLeft=3;spacingRight=3;rotatable=0;labelPosition=right;points=[];portConstraint=eastwest;fontSize=15;" parent="45" vertex="1">
                    <mxGeometry y="26" width="120" height="8" as="geometry"/>
                </mxCell>
                <mxCell id="47" value="GeoMultiLineString" style="swimlane;fontStyle=1;align=center;verticalAlign=top;childLayout=stackLayout;horizontal=1;startSize=26;horizontalStack=0;resizeParent=1;resizeParentMax=0;resizeLast=0;collapsible=1;marginBottom=0;fontSize=15;" parent="1" vertex="1">
                    <mxGeometry x="1470" y="1300" width="160" height="34" as="geometry">
                        <mxRectangle x="460" y="340" width="140" height="26" as="alternateBounds"/>
                    </mxGeometry>
                </mxCell>
                <mxCell id="48" value="" style="line;strokeWidth=1;fillColor=none;align=left;verticalAlign=middle;spacingTop=-1;spacingLeft=3;spacingRight=3;rotatable=0;labelPosition=right;points=[];portConstraint=eastwest;fontSize=15;" parent="47" vertex="1">
                    <mxGeometry y="26" width="160" height="8" as="geometry"/>
                </mxCell>
                <mxCell id="49" value="GeoMultiPolygon" style="swimlane;fontStyle=1;align=center;verticalAlign=top;childLayout=stackLayout;horizontal=1;startSize=26;horizontalStack=0;resizeParent=1;resizeParentMax=0;resizeLast=0;collapsible=1;marginBottom=0;fontSize=15;" parent="1" vertex="1">
                    <mxGeometry x="1700" y="1390" width="135" height="34" as="geometry"/>
                </mxCell>
                <mxCell id="50" value="" style="line;strokeWidth=1;fillColor=none;align=left;verticalAlign=middle;spacingTop=-1;spacingLeft=3;spacingRight=3;rotatable=0;labelPosition=right;points=[];portConstraint=eastwest;fontSize=15;" parent="49" vertex="1">
                    <mxGeometry y="26" width="135" height="8" as="geometry"/>
                </mxCell>
                <mxCell id="56" value="" style="endArrow=block;endSize=12;endFill=0;html=1;entryX=0.5;entryY=1;entryDx=0;entryDy=0;exitX=0.5;exitY=0;exitDx=0;exitDy=0;fontSize=15;" parent="1" source="43" target="41" edge="1">
                    <mxGeometry width="160" relative="1" as="geometry">
                        <mxPoint x="1420" y="1470" as="sourcePoint"/>
                        <mxPoint x="1580" y="1470" as="targetPoint"/>
                    </mxGeometry>
                </mxCell>
                <mxCell id="73" value="BaseMetric" style="swimlane;fontStyle=3;align=center;verticalAlign=top;childLayout=stackLayout;horizontal=1;startSize=26;horizontalStack=0;resizeParent=1;resizeParentMax=0;resizeLast=0;collapsible=1;marginBottom=0;fontSize=15;" parent="1" vertex="1">
                    <mxGeometry x="2159.5" y="974" width="120" height="34" as="geometry"/>
                </mxCell>
                <mxCell id="74" value="" style="line;strokeWidth=1;fillColor=none;align=left;verticalAlign=middle;spacingTop=-1;spacingLeft=3;spacingRight=3;rotatable=0;labelPosition=right;points=[];portConstraint=eastwest;fontSize=15;" parent="73" vertex="1">
                    <mxGeometry y="26" width="120" height="8" as="geometry"/>
                </mxCell>
                <mxCell id="77" value="«interface»&lt;br style=&quot;font-size: 15px;&quot;&gt;&lt;b style=&quot;font-size: 15px;&quot;&gt;RelateOp&lt;/b&gt;" style="html=1;fontSize=15;" parent="1" vertex="1">
                    <mxGeometry x="1737" y="330" width="110" height="50" as="geometry"/>
                </mxCell>
                <mxCell id="78" value="«interface»&lt;br style=&quot;font-size: 15px;&quot;&gt;&lt;b style=&quot;font-size: 15px;&quot;&gt;OverlayOp&lt;/b&gt;" style="html=1;fontSize=15;" parent="1" vertex="1">
                    <mxGeometry x="1737" y="430" width="110" height="50" as="geometry"/>
                </mxCell>
                <mxCell id="79" value="«interface»&lt;br style=&quot;font-size: 15px;&quot;&gt;&lt;b style=&quot;font-size: 15px;&quot;&gt;ValidOp&lt;/b&gt;" style="html=1;fontSize=15;" parent="1" vertex="1">
                    <mxGeometry x="1737" y="520" width="110" height="50" as="geometry"/>
                </mxCell>
                <mxCell id="80" value="AreaMetric" style="swimlane;fontStyle=1;align=center;verticalAlign=top;childLayout=stackLayout;horizontal=1;startSize=26;horizontalStack=0;resizeParent=1;resizeParentMax=0;resizeLast=0;collapsible=1;marginBottom=0;fontSize=15;" parent="1" vertex="1">
                    <mxGeometry x="1949.5" y="894" width="120" height="34" as="geometry"/>
                </mxCell>
                <mxCell id="81" value="" style="line;strokeWidth=1;fillColor=none;align=left;verticalAlign=middle;spacingTop=-1;spacingLeft=3;spacingRight=3;rotatable=0;labelPosition=right;points=[];portConstraint=eastwest;fontSize=15;" parent="80" vertex="1">
                    <mxGeometry y="26" width="120" height="8" as="geometry"/>
                </mxCell>
                <mxCell id="82" value="LengthMetric" style="swimlane;fontStyle=1;align=center;verticalAlign=top;childLayout=stackLayout;horizontal=1;startSize=26;horizontalStack=0;resizeParent=1;resizeParentMax=0;resizeLast=0;collapsible=1;marginBottom=0;fontSize=15;" parent="1" vertex="1">
                    <mxGeometry x="1949.5" y="1054" width="120" height="34" as="geometry"/>
                </mxCell>
                <mxCell id="83" value="" style="line;strokeWidth=1;fillColor=none;align=left;verticalAlign=middle;spacingTop=-1;spacingLeft=3;spacingRight=3;rotatable=0;labelPosition=right;points=[];portConstraint=eastwest;fontSize=15;" parent="82" vertex="1">
                    <mxGeometry y="26" width="120" height="8" as="geometry"/>
                </mxCell>
                <mxCell id="84" value="DistanceMetric" style="swimlane;fontStyle=1;align=center;verticalAlign=top;childLayout=stackLayout;horizontal=1;startSize=26;horizontalStack=0;resizeParent=1;resizeParentMax=0;resizeLast=0;collapsible=1;marginBottom=0;fontSize=15;" parent="1" vertex="1">
                    <mxGeometry x="1949.5" y="974" width="120" height="34" as="geometry"/>
                </mxCell>
                <mxCell id="85" value="" style="line;strokeWidth=1;fillColor=none;align=left;verticalAlign=middle;spacingTop=-1;spacingLeft=3;spacingRight=3;rotatable=0;labelPosition=right;points=[];portConstraint=eastwest;fontSize=15;" parent="84" vertex="1">
                    <mxGeometry y="26" width="120" height="8" as="geometry"/>
                </mxCell>
                <mxCell id="87" value="" style="endArrow=block;endSize=12;endFill=0;html=1;entryX=0;entryY=0.5;entryDx=0;entryDy=0;exitX=1;exitY=0.5;exitDx=0;exitDy=0;fontSize=15;" parent="1" source="84" target="73" edge="1">
                    <mxGeometry width="160" relative="1" as="geometry">
                        <mxPoint x="1899.5" y="824" as="sourcePoint"/>
                        <mxPoint x="1899.5" y="804" as="targetPoint"/>
                    </mxGeometry>
                </mxCell>
                <mxCell id="88" value="" style="endArrow=block;endSize=12;endFill=0;html=1;entryX=0;entryY=0.5;entryDx=0;entryDy=0;fontSize=15;exitX=1;exitY=0.5;exitDx=0;exitDy=0;" parent="1" source="80" target="73" edge="1">
                    <mxGeometry width="160" relative="1" as="geometry">
                        <mxPoint x="1719.5" y="834" as="sourcePoint"/>
                        <mxPoint x="1909.5" y="808" as="targetPoint"/>
                        <Array as="points">
                            <mxPoint x="2109.5" y="911"/>
                            <mxPoint x="2109.5" y="991"/>
                        </Array>
                    </mxGeometry>
                </mxCell>
                <mxCell id="89" value="" style="endArrow=block;endSize=12;endFill=0;html=1;entryX=0;entryY=0.5;entryDx=0;entryDy=0;exitX=1;exitY=0.5;exitDx=0;exitDy=0;fontSize=15;" parent="1" source="82" target="73" edge="1">
                    <mxGeometry width="160" relative="1" as="geometry">
                        <mxPoint x="1919.5" y="870" as="sourcePoint"/>
                        <mxPoint x="1919.5" y="818" as="targetPoint"/>
                        <Array as="points">
                            <mxPoint x="2109.5" y="1071"/>
                            <mxPoint x="2109.5" y="991"/>
                        </Array>
                    </mxGeometry>
                </mxCell>
                <mxCell id="95" value="GeoGeometry&#10;" style="swimlane;fontStyle=3;align=center;verticalAlign=top;childLayout=stackLayout;horizontal=1;startSize=26;horizontalStack=0;resizeParent=1;resizeParentMax=0;resizeLast=0;collapsible=1;marginBottom=0;fontSize=15;" vertex="1" parent="1">
                    <mxGeometry x="1420" y="1070" width="120" height="34" as="geometry"/>
                </mxCell>
                <mxCell id="96" value="" style="line;strokeWidth=1;fillColor=none;align=left;verticalAlign=middle;spacingTop=-1;spacingLeft=3;spacingRight=3;rotatable=0;labelPosition=right;points=[];portConstraint=eastwest;fontSize=15;" vertex="1" parent="95">
                    <mxGeometry y="26" width="120" height="8" as="geometry"/>
                </mxCell>
                <mxCell id="97" value="" style="endArrow=block;endSize=12;endFill=0;html=1;entryX=0.5;entryY=1;entryDx=0;entryDy=0;exitX=0.5;exitY=0;exitDx=0;exitDy=0;fontSize=15;" edge="1" parent="1" source="30" target="95">
                    <mxGeometry width="160" relative="1" as="geometry">
                        <mxPoint x="1320" y="1390" as="sourcePoint"/>
                        <mxPoint x="1320" y="1334" as="targetPoint"/>
                        <Array as="points">
                            <mxPoint x="1310" y="1180"/>
                            <mxPoint x="1480" y="1180"/>
                        </Array>
                    </mxGeometry>
                </mxCell>
                <mxCell id="98" value="" style="endArrow=diamondThin;endFill=1;endSize=18;html=1;exitX=1;exitY=0.5;exitDx=0;exitDy=0;entryX=0;entryY=0.5;entryDx=0;entryDy=0;fontSize=13;spacing=2;strokeWidth=1;" edge="1" parent="1" source="41" target="47">
                    <mxGeometry width="160" relative="1" as="geometry">
                        <mxPoint x="1320" y="1310" as="sourcePoint"/>
                        <mxPoint x="1320" y="1254" as="targetPoint"/>
                    </mxGeometry>
                </mxCell>
                <mxCell id="99" value="" style="endArrow=diamondThin;endFill=1;endSize=18;html=1;exitX=1;exitY=0.5;exitDx=0;exitDy=0;entryX=0;entryY=0.5;entryDx=0;entryDy=0;fontSize=13;spacing=2;strokeWidth=1;" edge="1" parent="1" source="43" target="45">
                    <mxGeometry width="160" relative="1" as="geometry">
                        <mxPoint x="1380" y="1327" as="sourcePoint"/>
                        <mxPoint x="1480" y="1327" as="targetPoint"/>
                    </mxGeometry>
                </mxCell>
                <mxCell id="100" value="" style="endArrow=diamondThin;endFill=1;endSize=18;html=1;exitX=1;exitY=0.5;exitDx=0;exitDy=0;entryX=0;entryY=0.5;entryDx=0;entryDy=0;fontSize=13;spacing=2;strokeWidth=1;" edge="1" parent="1" source="45" target="49">
                    <mxGeometry width="160" relative="1" as="geometry">
                        <mxPoint x="1380" y="1417" as="sourcePoint"/>
                        <mxPoint x="1500" y="1417" as="targetPoint"/>
                    </mxGeometry>
                </mxCell>
                <mxCell id="103" value="" style="endArrow=block;endSize=12;endFill=0;html=1;exitX=0.5;exitY=0;exitDx=0;exitDy=0;fontSize=15;entryX=0.5;entryY=1;entryDx=0;entryDy=0;" edge="1" parent="1" source="41" target="95">
                    <mxGeometry width="160" relative="1" as="geometry">
                        <mxPoint x="1320" y="1400" as="sourcePoint"/>
                        <mxPoint x="1430" y="1150" as="targetPoint"/>
                        <Array as="points">
                            <mxPoint x="1310" y="1270"/>
                            <mxPoint x="1480" y="1270"/>
                        </Array>
                    </mxGeometry>
                </mxCell>
                <mxCell id="104" value="" style="endArrow=block;endSize=12;endFill=0;html=1;exitX=0.5;exitY=0;exitDx=0;exitDy=0;fontSize=15;entryX=0.5;entryY=1;entryDx=0;entryDy=0;" edge="1" parent="1" source="47" target="95">
                    <mxGeometry width="160" relative="1" as="geometry">
                        <mxPoint x="1320" y="1220" as="sourcePoint"/>
                        <mxPoint x="1430" y="1150" as="targetPoint"/>
                        <Array as="points">
                            <mxPoint x="1550" y="1180"/>
                            <mxPoint x="1480" y="1180"/>
                        </Array>
                    </mxGeometry>
                </mxCell>
                <mxCell id="105" value="" style="endArrow=block;endSize=12;endFill=0;html=1;exitX=0.5;exitY=0;exitDx=0;exitDy=0;fontSize=15;entryX=0.5;entryY=1;entryDx=0;entryDy=0;" edge="1" parent="1" source="49" target="95">
                    <mxGeometry width="160" relative="1" as="geometry">
                        <mxPoint x="1560" y="1310" as="sourcePoint"/>
                        <mxPoint x="1430" y="1150" as="targetPoint"/>
                        <Array as="points">
                            <mxPoint x="1768" y="1360"/>
                            <mxPoint x="1670" y="1360"/>
                            <mxPoint x="1670" y="1180"/>
                            <mxPoint x="1480" y="1180"/>
                        </Array>
                    </mxGeometry>
                </mxCell>
                <mxCell id="106" value="" style="endArrow=block;endSize=12;endFill=0;html=1;fontSize=15;exitX=0.5;exitY=0;exitDx=0;exitDy=0;entryX=0.5;entryY=1;entryDx=0;entryDy=0;" edge="1" parent="1" source="45" target="95">
                    <mxGeometry width="160" relative="1" as="geometry">
                        <mxPoint x="1550" y="1380" as="sourcePoint"/>
                        <mxPoint x="1480" y="1144" as="targetPoint"/>
                        <Array as="points">
                            <mxPoint x="1530" y="1360"/>
                            <mxPoint x="1670" y="1360"/>
                            <mxPoint x="1670" y="1180"/>
                            <mxPoint x="1480" y="1180"/>
                        </Array>
                    </mxGeometry>
                </mxCell>
                <mxCell id="107" value="GeoCoordinate" style="swimlane;fontStyle=1;align=center;verticalAlign=top;childLayout=stackLayout;horizontal=1;startSize=26;horizontalStack=0;resizeParent=1;resizeParentMax=0;resizeLast=0;collapsible=1;marginBottom=0;fontSize=15;" vertex="1" parent="1">
                    <mxGeometry x="1000" y="1210" width="140" height="34" as="geometry"/>
                </mxCell>
                <mxCell id="108" value="" style="line;strokeWidth=1;fillColor=none;align=left;verticalAlign=middle;spacingTop=-1;spacingLeft=3;spacingRight=3;rotatable=0;labelPosition=right;points=[];portConstraint=eastwest;fontSize=15;" vertex="1" parent="107">
                    <mxGeometry y="26" width="140" height="8" as="geometry"/>
                </mxCell>
                <mxCell id="109" value="GeoCoordinateSequence" style="swimlane;fontStyle=1;align=center;verticalAlign=top;childLayout=stackLayout;horizontal=1;startSize=26;horizontalStack=0;resizeParent=1;resizeParentMax=0;resizeLast=0;collapsible=1;marginBottom=0;fontSize=15;" vertex="1" parent="1">
                    <mxGeometry x="970" y="1300" width="200" height="34" as="geometry"/>
                </mxCell>
                <mxCell id="110" value="" style="line;strokeWidth=1;fillColor=none;align=left;verticalAlign=middle;spacingTop=-1;spacingLeft=3;spacingRight=3;rotatable=0;labelPosition=right;points=[];portConstraint=eastwest;fontSize=15;" vertex="1" parent="109">
                    <mxGeometry y="26" width="200" height="8" as="geometry"/>
                </mxCell>
                <mxCell id="111" value="" style="endArrow=diamondThin;endFill=0;endSize=18;html=1;fontSize=13;strokeWidth=1;entryX=0;entryY=0.5;entryDx=0;entryDy=0;exitX=1;exitY=0.5;exitDx=0;exitDy=0;" edge="1" parent="1" source="109" target="41">
                    <mxGeometry width="160" relative="1" as="geometry">
                        <mxPoint x="1050" y="1400" as="sourcePoint"/>
                        <mxPoint x="1210" y="1400" as="targetPoint"/>
                    </mxGeometry>
                </mxCell>
                <mxCell id="112" value="" style="endArrow=diamondThin;endFill=1;endSize=18;html=1;fontSize=13;strokeWidth=1;exitX=0.5;exitY=1;exitDx=0;exitDy=0;entryX=0.5;entryY=0;entryDx=0;entryDy=0;" edge="1" parent="1" source="107" target="109">
                    <mxGeometry width="160" relative="1" as="geometry">
                        <mxPoint x="1130" y="1330" as="sourcePoint"/>
                        <mxPoint x="1290" y="1330" as="targetPoint"/>
                    </mxGeometry>
                </mxCell>
                <mxCell id="113" value="" style="endArrow=diamondThin;endFill=0;endSize=18;html=1;fontSize=13;strokeWidth=1;entryX=0;entryY=0.5;entryDx=0;entryDy=0;exitX=1;exitY=0.5;exitDx=0;exitDy=0;" edge="1" parent="1" source="107" target="30">
                    <mxGeometry width="160" relative="1" as="geometry">
                        <mxPoint x="1180" y="1327" as="sourcePoint"/>
                        <mxPoint x="1260" y="1327" as="targetPoint"/>
                    </mxGeometry>
                </mxCell>
                <mxCell id="114" value="GeoJsonWriter" style="swimlane;fontStyle=1;align=center;verticalAlign=top;childLayout=stackLayout;horizontal=1;startSize=26;horizontalStack=0;resizeParent=1;resizeParentMax=0;resizeLast=0;collapsible=1;marginBottom=0;fontSize=15;" vertex="1" parent="1">
                    <mxGeometry x="550" y="1110" width="140" height="34" as="geometry"/>
                </mxCell>
                <mxCell id="115" value="" style="line;strokeWidth=1;fillColor=none;align=left;verticalAlign=middle;spacingTop=-1;spacingLeft=3;spacingRight=3;rotatable=0;labelPosition=right;points=[];portConstraint=eastwest;fontSize=15;" vertex="1" parent="114">
                    <mxGeometry y="26" width="140" height="8" as="geometry"/>
                </mxCell>
                <mxCell id="116" value="GeoJsonReader" style="swimlane;fontStyle=1;align=center;verticalAlign=top;childLayout=stackLayout;horizontal=1;startSize=26;horizontalStack=0;resizeParent=1;resizeParentMax=0;resizeLast=0;collapsible=1;marginBottom=0;fontSize=15;" vertex="1" parent="1">
                    <mxGeometry x="760" y="1110" width="140" height="34" as="geometry"/>
                </mxCell>
                <mxCell id="117" value="" style="line;strokeWidth=1;fillColor=none;align=left;verticalAlign=middle;spacingTop=-1;spacingLeft=3;spacingRight=3;rotatable=0;labelPosition=right;points=[];portConstraint=eastwest;fontSize=15;" vertex="1" parent="116">
                    <mxGeometry y="26" width="140" height="8" as="geometry"/>
                </mxCell>
                <mxCell id="118" value="WKTReader" style="swimlane;fontStyle=1;align=center;verticalAlign=top;childLayout=stackLayout;horizontal=1;startSize=26;horizontalStack=0;resizeParent=1;resizeParentMax=0;resizeLast=0;collapsible=1;marginBottom=0;fontSize=15;" vertex="1" parent="1">
                    <mxGeometry x="760" y="1030" width="140" height="34" as="geometry"/>
                </mxCell>
                <mxCell id="119" value="" style="line;strokeWidth=1;fillColor=none;align=left;verticalAlign=middle;spacingTop=-1;spacingLeft=3;spacingRight=3;rotatable=0;labelPosition=right;points=[];portConstraint=eastwest;fontSize=15;" vertex="1" parent="118">
                    <mxGeometry y="26" width="140" height="8" as="geometry"/>
                </mxCell>
                <mxCell id="120" value="WKTWriter" style="swimlane;fontStyle=1;align=center;verticalAlign=top;childLayout=stackLayout;horizontal=1;startSize=26;horizontalStack=0;resizeParent=1;resizeParentMax=0;resizeLast=0;collapsible=1;marginBottom=0;fontSize=15;" vertex="1" parent="1">
                    <mxGeometry x="550" y="1030" width="140" height="34" as="geometry"/>
                </mxCell>
                <mxCell id="121" value="" style="line;strokeWidth=1;fillColor=none;align=left;verticalAlign=middle;spacingTop=-1;spacingLeft=3;spacingRight=3;rotatable=0;labelPosition=right;points=[];portConstraint=eastwest;fontSize=15;" vertex="1" parent="120">
                    <mxGeometry y="26" width="140" height="8" as="geometry"/>
                </mxCell>
                <mxCell id="122" value="MetricOp" style="swimlane;fontStyle=1;align=center;verticalAlign=top;childLayout=stackLayout;horizontal=1;startSize=26;horizontalStack=0;resizeParent=1;resizeParentMax=0;resizeLast=0;collapsible=1;marginBottom=0;fontSize=15;" vertex="1" parent="1">
                    <mxGeometry x="1737" y="974" width="120" height="34" as="geometry"/>
                </mxCell>
                <mxCell id="123" value="" style="line;strokeWidth=1;fillColor=none;align=left;verticalAlign=middle;spacingTop=-1;spacingLeft=3;spacingRight=3;rotatable=0;labelPosition=right;points=[];portConstraint=eastwest;fontSize=15;" vertex="1" parent="122">
                    <mxGeometry y="26" width="120" height="8" as="geometry"/>
                </mxCell>
                <mxCell id="125" value="" style="endArrow=diamondThin;endFill=0;endSize=18;html=1;fontSize=13;strokeWidth=1;exitX=0;exitY=0.5;exitDx=0;exitDy=0;entryX=1;entryY=0.5;entryDx=0;entryDy=0;" edge="1" parent="1" source="84" target="122">
                    <mxGeometry width="160" relative="1" as="geometry">
                        <mxPoint x="1809.5" y="964" as="sourcePoint"/>
                        <mxPoint x="1969.5" y="964" as="targetPoint"/>
                    </mxGeometry>
                </mxCell>
                <mxCell id="126" value="" style="endArrow=diamondThin;endFill=0;endSize=18;html=1;fontSize=13;strokeWidth=1;exitX=0;exitY=0.5;exitDx=0;exitDy=0;entryX=1;entryY=0.5;entryDx=0;entryDy=0;" edge="1" parent="1" source="82" target="122">
                    <mxGeometry width="160" relative="1" as="geometry">
                        <mxPoint x="1909.5" y="894" as="sourcePoint"/>
                        <mxPoint x="1909.5" y="962.0000000000001" as="targetPoint"/>
                        <Array as="points">
                            <mxPoint x="1909.5" y="1071"/>
                            <mxPoint x="1909.5" y="991"/>
                        </Array>
                    </mxGeometry>
                </mxCell>
                <mxCell id="127" value="" style="endArrow=diamondThin;endFill=0;endSize=18;html=1;fontSize=13;strokeWidth=1;entryX=1;entryY=0.5;entryDx=0;entryDy=0;exitX=0;exitY=0.5;exitDx=0;exitDy=0;" edge="1" parent="1" source="80" target="122">
                    <mxGeometry width="160" relative="1" as="geometry">
                        <mxPoint x="1749.5" y="924" as="sourcePoint"/>
                        <mxPoint x="1919.5" y="972.0000000000001" as="targetPoint"/>
                        <Array as="points">
                            <mxPoint x="1909.5" y="911"/>
                            <mxPoint x="1909.5" y="991"/>
                        </Array>
                    </mxGeometry>
                </mxCell>
                <mxCell id="132" value="&lt;b&gt;GeoFactory&lt;/b&gt;" style="shape=tape;whiteSpace=wrap;html=1;fontSize=18;" vertex="1" parent="1">
                    <mxGeometry x="1040" y="1047" width="130" height="80" as="geometry"/>
                </mxCell>
                <mxCell id="133" value="" style="endArrow=open;endSize=12;dashed=1;html=1;fontSize=18;strokeWidth=1;exitX=1;exitY=0.5;exitDx=0;exitDy=0;exitPerimeter=0;entryX=0;entryY=0.5;entryDx=0;entryDy=0;" edge="1" parent="1" source="132" target="95">
                    <mxGeometry width="160" relative="1" as="geometry">
                        <mxPoint x="1330" y="1010" as="sourcePoint"/>
                        <mxPoint x="1490" y="1010" as="targetPoint"/>
                    </mxGeometry>
                </mxCell>
                <mxCell id="135" value="" style="endArrow=open;endSize=12;dashed=1;html=1;fontSize=18;strokeWidth=1;exitX=1;exitY=0.5;exitDx=0;exitDy=0;entryX=0;entryY=0.5;entryDx=0;entryDy=0;entryPerimeter=0;" edge="1" parent="1" source="118" target="132">
                    <mxGeometry width="160" relative="1" as="geometry">
                        <mxPoint x="1150" y="1097" as="sourcePoint"/>
                        <mxPoint x="1280" y="1097" as="targetPoint"/>
                    </mxGeometry>
                </mxCell>
                <mxCell id="136" value="" style="endArrow=open;endSize=12;dashed=1;html=1;fontSize=18;strokeWidth=1;exitX=1;exitY=0.5;exitDx=0;exitDy=0;entryX=0;entryY=0.5;entryDx=0;entryDy=0;entryPerimeter=0;" edge="1" parent="1" source="116" target="132">
                    <mxGeometry width="160" relative="1" as="geometry">
                        <mxPoint x="1160" y="1107" as="sourcePoint"/>
                        <mxPoint x="1290" y="1107" as="targetPoint"/>
                    </mxGeometry>
                </mxCell>
                <mxCell id="137" value="GeoEarth" style="swimlane;fontStyle=1;align=center;verticalAlign=top;childLayout=stackLayout;horizontal=1;startSize=26;horizontalStack=0;resizeParent=1;resizeParentMax=0;resizeLast=0;collapsible=1;marginBottom=0;fontSize=15;" vertex="1" parent="1">
                    <mxGeometry x="1750" y="1200" width="120" height="34" as="geometry"/>
                </mxCell>
                <mxCell id="138" value="" style="line;strokeWidth=1;fillColor=none;align=left;verticalAlign=middle;spacingTop=-1;spacingLeft=3;spacingRight=3;rotatable=0;labelPosition=right;points=[];portConstraint=eastwest;fontSize=15;" vertex="1" parent="137">
                    <mxGeometry y="26" width="120" height="8" as="geometry"/>
                </mxCell>
                <mxCell id="139" value="BaseEarthLoader" style="swimlane;fontStyle=3;align=center;verticalAlign=top;childLayout=stackLayout;horizontal=1;startSize=26;horizontalStack=0;resizeParent=1;resizeParentMax=0;resizeLast=0;collapsible=1;marginBottom=0;fontSize=15;" vertex="1" parent="1">
                    <mxGeometry x="2290" y="1104" width="150" height="34" as="geometry"/>
                </mxCell>
                <mxCell id="140" value="" style="line;strokeWidth=1;fillColor=none;align=left;verticalAlign=middle;spacingTop=-1;spacingLeft=3;spacingRight=3;rotatable=0;labelPosition=right;points=[];portConstraint=eastwest;fontSize=15;" vertex="1" parent="139">
                    <mxGeometry y="26" width="150" height="8" as="geometry"/>
                </mxCell>
                <mxCell id="141" value="" style="endArrow=open;endSize=12;dashed=1;html=1;fontSize=18;strokeWidth=1;entryX=1;entryY=0.5;entryDx=0;entryDy=0;exitX=0.5;exitY=1;exitDx=0;exitDy=0;" edge="1" parent="1" source="139" target="137">
                    <mxGeometry width="160" relative="1" as="geometry">
                        <mxPoint x="1840" y="1250" as="sourcePoint"/>
                        <mxPoint x="2000" y="1250" as="targetPoint"/>
                        <Array as="points">
                            <mxPoint x="2365" y="1217"/>
                        </Array>
                    </mxGeometry>
                </mxCell>
                <mxCell id="142" value="" style="endArrow=block;endSize=12;endFill=0;html=1;entryX=0.5;entryY=0;entryDx=0;entryDy=0;exitX=1;exitY=0.5;exitDx=0;exitDy=0;fontSize=15;" edge="1" parent="1" source="73" target="139">
                    <mxGeometry width="160" relative="1" as="geometry">
                        <mxPoint x="2200" y="1030" as="sourcePoint"/>
                        <mxPoint x="2290" y="1030" as="targetPoint"/>
                        <Array as="points">
                            <mxPoint x="2365" y="991"/>
                        </Array>
                    </mxGeometry>
                </mxCell>
                <mxCell id="143" value="" style="endArrow=open;endSize=12;dashed=1;html=1;fontSize=18;strokeWidth=1;exitX=0.5;exitY=0;exitDx=0;exitDy=0;entryX=0;entryY=0.5;entryDx=0;entryDy=0;" edge="1" parent="1" source="95" target="120">
                    <mxGeometry width="160" relative="1" as="geometry">
                        <mxPoint x="1270" y="740" as="sourcePoint"/>
                        <mxPoint x="210" y="810" as="targetPoint"/>
                        <Array as="points">
                            <mxPoint x="1480" y="940"/>
                            <mxPoint x="440" y="940"/>
                            <mxPoint x="440" y="1047"/>
                        </Array>
                    </mxGeometry>
                </mxCell>
                <mxCell id="144" value="" style="endArrow=open;endSize=12;dashed=1;html=1;fontSize=18;strokeWidth=1;exitX=0.5;exitY=0;exitDx=0;exitDy=0;entryX=0;entryY=0.5;entryDx=0;entryDy=0;" edge="1" parent="1" source="95" target="114">
                    <mxGeometry width="160" relative="1" as="geometry">
                        <mxPoint x="1480.0000000000005" y="1070" as="sourcePoint"/>
                        <mxPoint x="560" y="1047" as="targetPoint"/>
                        <Array as="points">
                            <mxPoint x="1480" y="940"/>
                            <mxPoint x="440" y="940"/>
                            <mxPoint x="440" y="1127"/>
                        </Array>
                    </mxGeometry>
                </mxCell>
                <mxCell id="145" value="" style="endArrow=open;endSize=12;dashed=1;html=1;fontSize=18;strokeWidth=1;exitX=0.5;exitY=0;exitDx=0;exitDy=0;entryX=0;entryY=0.5;entryDx=0;entryDy=0;" edge="1" parent="1" source="95" target="122">
                    <mxGeometry width="160" relative="1" as="geometry">
                        <mxPoint x="1180" y="1097" as="sourcePoint"/>
                        <mxPoint x="1530" y="840" as="targetPoint"/>
                        <Array as="points">
                            <mxPoint x="1480" y="991"/>
                        </Array>
                    </mxGeometry>
                </mxCell>
                <mxCell id="150" value="BaseBuffer" style="swimlane;fontStyle=3;align=center;verticalAlign=top;childLayout=stackLayout;horizontal=1;startSize=26;horizontalStack=0;resizeParent=1;resizeParentMax=0;resizeLast=0;collapsible=1;marginBottom=0;fontSize=15;" vertex="1" parent="1">
                    <mxGeometry x="2159.5" y="720" width="120" height="34" as="geometry"/>
                </mxCell>
                <mxCell id="151" value="" style="line;strokeWidth=1;fillColor=none;align=left;verticalAlign=middle;spacingTop=-1;spacingLeft=3;spacingRight=3;rotatable=0;labelPosition=right;points=[];portConstraint=eastwest;fontSize=15;" vertex="1" parent="150">
                    <mxGeometry y="26" width="120" height="8" as="geometry"/>
                </mxCell>
                <mxCell id="152" value="..." style="swimlane;fontStyle=1;align=center;verticalAlign=top;childLayout=stackLayout;horizontal=1;startSize=26;horizontalStack=0;resizeParent=1;resizeParentMax=0;resizeLast=0;collapsible=1;marginBottom=0;fontSize=15;" vertex="1" parent="1">
                    <mxGeometry x="1949.5" y="640" width="120" height="34" as="geometry"/>
                </mxCell>
                <mxCell id="153" value="" style="line;strokeWidth=1;fillColor=none;align=left;verticalAlign=middle;spacingTop=-1;spacingLeft=3;spacingRight=3;rotatable=0;labelPosition=right;points=[];portConstraint=eastwest;fontSize=15;" vertex="1" parent="152">
                    <mxGeometry y="26" width="120" height="8" as="geometry"/>
                </mxCell>
                <mxCell id="154" value="..." style="swimlane;fontStyle=1;align=center;verticalAlign=top;childLayout=stackLayout;horizontal=1;startSize=26;horizontalStack=0;resizeParent=1;resizeParentMax=0;resizeLast=0;collapsible=1;marginBottom=0;fontSize=15;" vertex="1" parent="1">
                    <mxGeometry x="1949.5" y="800" width="120" height="34" as="geometry"/>
                </mxCell>
                <mxCell id="155" value="" style="line;strokeWidth=1;fillColor=none;align=left;verticalAlign=middle;spacingTop=-1;spacingLeft=3;spacingRight=3;rotatable=0;labelPosition=right;points=[];portConstraint=eastwest;fontSize=15;" vertex="1" parent="154">
                    <mxGeometry y="26" width="120" height="8" as="geometry"/>
                </mxCell>
                <mxCell id="156" value="..." style="swimlane;fontStyle=1;align=center;verticalAlign=top;childLayout=stackLayout;horizontal=1;startSize=26;horizontalStack=0;resizeParent=1;resizeParentMax=0;resizeLast=0;collapsible=1;marginBottom=0;fontSize=15;" vertex="1" parent="1">
                    <mxGeometry x="1949.5" y="720" width="120" height="34" as="geometry"/>
                </mxCell>
                <mxCell id="157" value="" style="line;strokeWidth=1;fillColor=none;align=left;verticalAlign=middle;spacingTop=-1;spacingLeft=3;spacingRight=3;rotatable=0;labelPosition=right;points=[];portConstraint=eastwest;fontSize=15;" vertex="1" parent="156">
                    <mxGeometry y="26" width="120" height="8" as="geometry"/>
                </mxCell>
                <mxCell id="158" value="" style="endArrow=block;endSize=12;endFill=0;html=1;entryX=0;entryY=0.5;entryDx=0;entryDy=0;exitX=1;exitY=0.5;exitDx=0;exitDy=0;fontSize=15;" edge="1" parent="1" source="156" target="150">
                    <mxGeometry width="160" relative="1" as="geometry">
                        <mxPoint x="1899.5" y="570" as="sourcePoint"/>
                        <mxPoint x="1899.5" y="550" as="targetPoint"/>
                    </mxGeometry>
                </mxCell>
                <mxCell id="159" value="" style="endArrow=block;endSize=12;endFill=0;html=1;entryX=0;entryY=0.5;entryDx=0;entryDy=0;fontSize=15;exitX=1;exitY=0.5;exitDx=0;exitDy=0;" edge="1" parent="1" source="152" target="150">
                    <mxGeometry width="160" relative="1" as="geometry">
                        <mxPoint x="1719.5" y="580" as="sourcePoint"/>
                        <mxPoint x="1909.5" y="554" as="targetPoint"/>
                        <Array as="points">
                            <mxPoint x="2109.5" y="657"/>
                            <mxPoint x="2109.5" y="737"/>
                        </Array>
                    </mxGeometry>
                </mxCell>
                <mxCell id="160" value="" style="endArrow=block;endSize=12;endFill=0;html=1;entryX=0;entryY=0.5;entryDx=0;entryDy=0;exitX=1;exitY=0.5;exitDx=0;exitDy=0;fontSize=15;" edge="1" parent="1" source="154" target="150">
                    <mxGeometry width="160" relative="1" as="geometry">
                        <mxPoint x="1919.5" y="616" as="sourcePoint"/>
                        <mxPoint x="1919.5" y="564" as="targetPoint"/>
                        <Array as="points">
                            <mxPoint x="2109.5" y="817"/>
                            <mxPoint x="2109.5" y="737"/>
                        </Array>
                    </mxGeometry>
                </mxCell>
                <mxCell id="161" value="BufferOp" style="swimlane;fontStyle=1;align=center;verticalAlign=top;childLayout=stackLayout;horizontal=1;startSize=26;horizontalStack=0;resizeParent=1;resizeParentMax=0;resizeLast=0;collapsible=1;marginBottom=0;fontSize=15;" vertex="1" parent="1">
                    <mxGeometry x="1737" y="720" width="120" height="34" as="geometry"/>
                </mxCell>
                <mxCell id="162" value="" style="line;strokeWidth=1;fillColor=none;align=left;verticalAlign=middle;spacingTop=-1;spacingLeft=3;spacingRight=3;rotatable=0;labelPosition=right;points=[];portConstraint=eastwest;fontSize=15;" vertex="1" parent="161">
                    <mxGeometry y="26" width="120" height="8" as="geometry"/>
                </mxCell>
                <mxCell id="163" value="" style="endArrow=diamondThin;endFill=0;endSize=18;html=1;fontSize=13;strokeWidth=1;exitX=0;exitY=0.5;exitDx=0;exitDy=0;entryX=1;entryY=0.5;entryDx=0;entryDy=0;" edge="1" parent="1" source="156" target="161">
                    <mxGeometry width="160" relative="1" as="geometry">
                        <mxPoint x="1809.5" y="710" as="sourcePoint"/>
                        <mxPoint x="1969.5" y="710" as="targetPoint"/>
                    </mxGeometry>
                </mxCell>
                <mxCell id="164" value="" style="endArrow=diamondThin;endFill=0;endSize=18;html=1;fontSize=13;strokeWidth=1;exitX=0;exitY=0.5;exitDx=0;exitDy=0;entryX=1;entryY=0.5;entryDx=0;entryDy=0;" edge="1" parent="1" source="154" target="161">
                    <mxGeometry width="160" relative="1" as="geometry">
                        <mxPoint x="1909.5" y="640" as="sourcePoint"/>
                        <mxPoint x="1909.5" y="708.0000000000001" as="targetPoint"/>
                        <Array as="points">
                            <mxPoint x="1909.5" y="817"/>
                            <mxPoint x="1909.5" y="737"/>
                        </Array>
                    </mxGeometry>
                </mxCell>
                <mxCell id="165" value="" style="endArrow=diamondThin;endFill=0;endSize=18;html=1;fontSize=13;strokeWidth=1;entryX=1;entryY=0.5;entryDx=0;entryDy=0;exitX=0;exitY=0.5;exitDx=0;exitDy=0;" edge="1" parent="1" source="152" target="161">
                    <mxGeometry width="160" relative="1" as="geometry">
                        <mxPoint x="1749.5" y="670" as="sourcePoint"/>
                        <mxPoint x="1919.5" y="718.0000000000001" as="targetPoint"/>
                        <Array as="points">
                            <mxPoint x="1909.5" y="657"/>
                            <mxPoint x="1909.5" y="737"/>
                        </Array>
                    </mxGeometry>
                </mxCell>
                <mxCell id="166" value="" style="endArrow=block;endSize=12;endFill=0;html=1;fontSize=15;exitX=1;exitY=0.5;exitDx=0;exitDy=0;entryX=0.5;entryY=0;entryDx=0;entryDy=0;" edge="1" parent="1" source="150" target="139">
                    <mxGeometry width="160" relative="1" as="geometry">
                        <mxPoint x="2370" y="730" as="sourcePoint"/>
                        <mxPoint x="2230" y="1300" as="targetPoint"/>
                        <Array as="points">
                            <mxPoint x="2365" y="737"/>
                        </Array>
                    </mxGeometry>
                </mxCell>
                <mxCell id="168" value="" style="endArrow=open;endSize=12;dashed=1;html=1;fontSize=18;strokeWidth=1;exitX=0.5;exitY=0;exitDx=0;exitDy=0;entryX=0;entryY=0.5;entryDx=0;entryDy=0;" edge="1" parent="1" source="95" target="161">
                    <mxGeometry width="160" relative="1" as="geometry">
                        <mxPoint x="1330" y="780" as="sourcePoint"/>
                        <mxPoint x="1580.0000000000005" y="780" as="targetPoint"/>
                        <Array as="points">
                            <mxPoint x="1480" y="737"/>
                        </Array>
                    </mxGeometry>
                </mxCell>
                <mxCell id="172" value="io" style="shape=umlFrame;whiteSpace=wrap;html=1;fontSize=18;width=80;height=30;strokeColor=#CFA57C;strokeWidth=2;" vertex="1" parent="1">
                    <mxGeometry x="500" y="980" width="420" height="190" as="geometry"/>
                </mxCell>
            </root>
        </mxGraphModel>
    </diagram>
</mxfile>